<mxfile host="app.diagrams.net" modified="2024-06-18T17:07:46.754Z" agent="Mozilla/5.0 (Windows NT 10.0; Win64; x64) AppleWebKit/537.36 (KHTML, like Gecko) Chrome/125.0.0.0 Safari/537.36" etag="kFBs5NWCcSLrI7wdkhRk" version="24.5.5" type="device">
  <diagram name="Page-1" id="YZWuV75bgp1Hb_tNFxNd">
    <mxGraphModel dx="1114" dy="550" grid="1" gridSize="10" guides="1" tooltips="1" connect="1" arrows="1" fold="1" page="1" pageScale="1" pageWidth="1100" pageHeight="850" math="0" shadow="0">
      <root>
        <mxCell id="0" />
        <mxCell id="1" parent="0" />
        <mxCell id="NtT6TyNmMvvjKWW6YuIJ-1" value="AWS Account" style="points=[[0,0],[0.25,0],[0.5,0],[0.75,0],[1,0],[1,0.25],[1,0.5],[1,0.75],[1,1],[0.75,1],[0.5,1],[0.25,1],[0,1],[0,0.75],[0,0.5],[0,0.25]];outlineConnect=0;gradientColor=none;html=1;whiteSpace=wrap;fontSize=12;fontStyle=0;container=1;pointerEvents=0;collapsible=0;recursiveResize=0;shape=mxgraph.aws4.group;grIcon=mxgraph.aws4.group_account;strokeColor=#CD2264;fillColor=none;verticalAlign=top;align=left;spacingLeft=30;fontColor=#CD2264;dashed=0;" vertex="1" parent="1">
          <mxGeometry x="120" y="40" width="920" height="590" as="geometry" />
        </mxCell>
        <mxCell id="NtT6TyNmMvvjKWW6YuIJ-2" value="VPC-1 (10.0.0.0/24)" style="points=[[0,0],[0.25,0],[0.5,0],[0.75,0],[1,0],[1,0.25],[1,0.5],[1,0.75],[1,1],[0.75,1],[0.5,1],[0.25,1],[0,1],[0,0.75],[0,0.5],[0,0.25]];outlineConnect=0;gradientColor=none;html=1;whiteSpace=wrap;fontSize=12;fontStyle=0;container=1;pointerEvents=0;collapsible=0;recursiveResize=0;shape=mxgraph.aws4.group;grIcon=mxgraph.aws4.group_vpc2;strokeColor=#8C4FFF;fillColor=none;verticalAlign=top;align=left;spacingLeft=30;fontColor=#AAB7B8;dashed=0;" vertex="1" parent="NtT6TyNmMvvjKWW6YuIJ-1">
          <mxGeometry x="80" y="40" width="800" height="520" as="geometry" />
        </mxCell>
        <mxCell id="NtT6TyNmMvvjKWW6YuIJ-3" value="Public subnet (10.0.0.0/25)" style="points=[[0,0],[0.25,0],[0.5,0],[0.75,0],[1,0],[1,0.25],[1,0.5],[1,0.75],[1,1],[0.75,1],[0.5,1],[0.25,1],[0,1],[0,0.75],[0,0.5],[0,0.25]];outlineConnect=0;gradientColor=none;html=1;whiteSpace=wrap;fontSize=12;fontStyle=0;container=1;pointerEvents=0;collapsible=0;recursiveResize=0;shape=mxgraph.aws4.group;grIcon=mxgraph.aws4.group_security_group;grStroke=0;strokeColor=#7AA116;fillColor=#F2F6E8;verticalAlign=top;align=left;spacingLeft=30;fontColor=#248814;dashed=0;" vertex="1" parent="NtT6TyNmMvvjKWW6YuIJ-2">
          <mxGeometry x="480" y="40" width="240" height="200" as="geometry" />
        </mxCell>
        <mxCell id="NtT6TyNmMvvjKWW6YuIJ-5" value="" style="outlineConnect=0;dashed=0;verticalLabelPosition=bottom;verticalAlign=top;align=center;html=1;shape=mxgraph.aws3.ec2;fillColor=#F58534;gradientColor=none;" vertex="1" parent="NtT6TyNmMvvjKWW6YuIJ-3">
          <mxGeometry x="100" y="54" width="76.5" height="93" as="geometry" />
        </mxCell>
        <mxCell id="NtT6TyNmMvvjKWW6YuIJ-4" value="Private subnet (10.0.0.128/25)" style="points=[[0,0],[0.25,0],[0.5,0],[0.75,0],[1,0],[1,0.25],[1,0.5],[1,0.75],[1,1],[0.75,1],[0.5,1],[0.25,1],[0,1],[0,0.75],[0,0.5],[0,0.25]];outlineConnect=0;gradientColor=none;html=1;whiteSpace=wrap;fontSize=12;fontStyle=0;container=1;pointerEvents=0;collapsible=0;recursiveResize=0;shape=mxgraph.aws4.group;grIcon=mxgraph.aws4.group_security_group;grStroke=0;strokeColor=#00A4A6;fillColor=#E6F6F7;verticalAlign=top;align=left;spacingLeft=30;fontColor=#147EBA;dashed=0;" vertex="1" parent="NtT6TyNmMvvjKWW6YuIJ-2">
          <mxGeometry x="480" y="280" width="255" height="200" as="geometry" />
        </mxCell>
        <mxCell id="NtT6TyNmMvvjKWW6YuIJ-6" value="" style="outlineConnect=0;dashed=0;verticalLabelPosition=bottom;verticalAlign=top;align=center;html=1;shape=mxgraph.aws3.ec2;fillColor=#F58534;gradientColor=none;" vertex="1" parent="NtT6TyNmMvvjKWW6YuIJ-4">
          <mxGeometry x="81.75" y="32.5" width="76.5" height="93" as="geometry" />
        </mxCell>
        <mxCell id="NtT6TyNmMvvjKWW6YuIJ-26" value="" style="outlineConnect=0;dashed=0;verticalLabelPosition=bottom;verticalAlign=top;align=center;html=1;shape=mxgraph.aws3.ec2;fillColor=#F58534;gradientColor=none;" vertex="1" parent="NtT6TyNmMvvjKWW6YuIJ-4">
          <mxGeometry x="20" y="100" width="76.5" height="93" as="geometry" />
        </mxCell>
        <mxCell id="NtT6TyNmMvvjKWW6YuIJ-27" value="" style="sketch=0;outlineConnect=0;fontColor=#232F3E;gradientColor=none;fillColor=#8C4FFF;strokeColor=none;dashed=0;verticalLabelPosition=bottom;verticalAlign=top;align=center;html=1;fontSize=12;fontStyle=0;aspect=fixed;pointerEvents=1;shape=mxgraph.aws4.application_load_balancer;" vertex="1" parent="NtT6TyNmMvvjKWW6YuIJ-4">
          <mxGeometry x="177" y="22" width="78" height="78" as="geometry" />
        </mxCell>
        <mxCell id="NtT6TyNmMvvjKWW6YuIJ-21" value="" style="sketch=0;outlineConnect=0;fontColor=#232F3E;gradientColor=none;fillColor=#8C4FFF;strokeColor=none;dashed=0;verticalLabelPosition=bottom;verticalAlign=top;align=center;html=1;fontSize=12;fontStyle=0;aspect=fixed;pointerEvents=1;shape=mxgraph.aws4.nat_gateway;" vertex="1" parent="NtT6TyNmMvvjKWW6YuIJ-2">
          <mxGeometry x="450" y="320" width="78" height="78" as="geometry" />
        </mxCell>
        <mxCell id="NtT6TyNmMvvjKWW6YuIJ-25" style="edgeStyle=orthogonalEdgeStyle;rounded=0;orthogonalLoop=1;jettySize=auto;html=1;" edge="1" parent="NtT6TyNmMvvjKWW6YuIJ-2" source="NtT6TyNmMvvjKWW6YuIJ-22" target="NtT6TyNmMvvjKWW6YuIJ-3">
          <mxGeometry relative="1" as="geometry">
            <Array as="points">
              <mxPoint x="340" y="160" />
              <mxPoint x="340" y="170" />
            </Array>
          </mxGeometry>
        </mxCell>
        <mxCell id="NtT6TyNmMvvjKWW6YuIJ-22" value="Firewall Subnet" style="sketch=0;outlineConnect=0;gradientColor=none;html=1;whiteSpace=wrap;fontSize=12;fontStyle=0;shape=mxgraph.aws4.group;grIcon=mxgraph.aws4.group_subnet;strokeColor=#879196;fillColor=none;verticalAlign=top;align=left;spacingLeft=30;fontColor=#879196;dashed=0;" vertex="1" parent="NtT6TyNmMvvjKWW6YuIJ-2">
          <mxGeometry x="70" y="50" width="130" height="130" as="geometry" />
        </mxCell>
        <mxCell id="NtT6TyNmMvvjKWW6YuIJ-23" value="" style="image;html=1;image=img/lib/clip_art/networking/Firewall_02_128x128.png" vertex="1" parent="NtT6TyNmMvvjKWW6YuIJ-2">
          <mxGeometry x="95" y="90" width="80" height="80" as="geometry" />
        </mxCell>
        <mxCell id="NtT6TyNmMvvjKWW6YuIJ-24" style="edgeStyle=orthogonalEdgeStyle;rounded=0;orthogonalLoop=1;jettySize=auto;html=1;" edge="1" parent="NtT6TyNmMvvjKWW6YuIJ-1" source="NtT6TyNmMvvjKWW6YuIJ-20" target="NtT6TyNmMvvjKWW6YuIJ-22">
          <mxGeometry relative="1" as="geometry" />
        </mxCell>
        <mxCell id="NtT6TyNmMvvjKWW6YuIJ-20" value="Internet&#xa;gateway" style="sketch=0;outlineConnect=0;fontColor=#232F3E;gradientColor=none;strokeColor=#232F3E;fillColor=#ffffff;dashed=0;verticalLabelPosition=bottom;verticalAlign=top;align=center;html=1;fontSize=12;fontStyle=0;aspect=fixed;shape=mxgraph.aws4.resourceIcon;resIcon=mxgraph.aws4.internet_gateway;" vertex="1" parent="NtT6TyNmMvvjKWW6YuIJ-1">
          <mxGeometry x="50" y="260" width="60" height="60" as="geometry" />
        </mxCell>
      </root>
    </mxGraphModel>
  </diagram>
</mxfile>
